<?xml version="1.0" encoding="UTF-8" standalone="no"?>
<svg width="134.65013mm" height="59.03989mm" viewBox="0 0 134.65013 59.03989" version="1.1" id="svg5"
    xmlns="http://www.w3.org/2000/svg"
   xmlns:svg="http://www.w3.org/2000/svg">
   <g id="layer1" transform="translate(-25.568397,-135.02592)">
      <path style="fill:#000000;stroke-width:0.158993"
         d="m 137.07956,193.77382 c -0.80156,-0.36414 -1.60045,-1.26272 -1.81749,-2.04428 -0.0917,-0.33032 -0.16718,-1.5128 -0.16767,-2.62773 l -8.9e-4,-2.02717 h -0.53863 c -0.3555,0 -0.81369,0.18921 -1.34761,0.55648 -0.44494,0.30606 -0.94012,0.55648 -1.1004,0.55648 -0.53244,0 -0.88376,-0.39578 -0.86219,-0.97128 l 0.0202,-0.53916 h -4.27608 -4.27607 l -0.48986,-0.4694 c -0.26942,-0.25818 -0.5571,-0.72323 -0.63929,-1.03346 -0.0822,-0.31023 -0.19972,-3.20454 -0.26117,-6.43181 l -0.11173,-5.86775 -4.58212,0.10784 c -7.10385,0.16719 -6.7986,0.47479 -7.00014,-7.054 -0.0963,-3.59836 -0.0834,-5.22606 0.0458,-5.78185 0.22945,-0.9867 1.21745,-2.05949 2.12678,-2.3093 0.39044,-0.10726 2.33021,-0.17506 5.02449,-0.1756 l 4.38852,-9.6e-4 0.10337,-1.47068 c 0.0568,-0.80888 0.15051,-3.67728 0.20814,-6.37423 0.0987,-4.61806 0.12415,-4.93228 0.43744,-5.39716 0.18296,-0.2715 0.58283,-0.64059 0.88859,-0.82021 0.52013,-0.30555 0.80803,-0.32658 4.46946,-0.32658 h 3.91352 l -0.1538,-0.33763 c -0.20093,-0.44111 0.0819,-0.97888 0.58058,-1.10405 0.2325,-0.0583 0.63653,0.0397 1.06557,0.25857 0.38009,0.1939 1.16921,0.51518 1.7536,0.71395 l 1.06254,0.36139 0.0557,-2.49001 c 0.0491,-2.19293 0.0973,-2.56823 0.40423,-3.14572 0.43146,-0.81176 1.14663,-1.42824 1.91981,-1.65489 0.4037,-0.11833 3.61598,-0.15719 10.20814,-0.12348 8.69346,0.0445 9.66653,0.0752 10.1122,0.31931 0.66447,0.36397 1.42436,1.25421 1.62386,1.9024 0.22533,0.73213 0.34886,10.96446 0.14221,11.77863 -0.21778,0.85798 -1.1287,1.78251 -2.0207,2.05088 -0.5373,0.16166 -1.73775,0.20613 -4.8206,0.17859 l -4.10512,-0.0367 0.12227,0.91114 c 0.0673,0.50112 0.11519,1.78757 0.10653,2.85879 l -0.0157,1.94766 h 4.28194 c 3.23667,0 4.40743,0.0524 4.79604,0.21481 0.67954,0.28393 1.4845,1.2197 1.69202,1.967 0.24397,0.87851 0.22352,10.39678 -0.0241,11.22327 -0.24238,0.80899 -1.05173,1.62992 -1.8315,1.85769 -0.86162,0.25169 -15.81078,0.41621 -16.65752,0.18333 -0.84807,-0.23325 -1.80189,-1.04489 -2.16345,-1.84095 -0.23596,-0.51953 -0.29465,-1.04715 -0.29745,-2.67438 l -0.003,-2.02709 -2.18616,-0.002 c -1.20238,-9.5e-4 -2.44929,-0.0453 -2.77091,-0.0984 l -0.58475,-0.0967 -0.0512,2.47229 c -0.0558,2.69288 -0.12468,2.91406 -1.1454,3.677 -0.40922,0.30587 -0.7136,0.33313 -4.54805,0.40731 -2.26021,0.0437 -4.1333,0.11527 -4.1624,0.15899 -0.0291,0.0437 -0.0333,2.6373 -0.009,5.7635 l 0.0437,5.684 h 3.72842 3.72842 l -0.0921,-0.46042 c -0.068,-0.33998 -0.005,-0.54793 0.24247,-0.79496 0.50553,-0.50553 0.88212,-0.41156 1.84498,0.46041 0.4828,0.43723 0.9665,0.79594 1.07489,0.79714 0.10838,0.001 0.34015,0.0407 0.51504,0.0879 0.3091,0.0833 0.31654,0.0205 0.26617,-2.24867 -0.0285,-1.2839 -0.01,-2.50266 0.042,-2.70835 0.13652,-0.54392 0.95503,-1.41467 1.6316,-1.73572 0.54111,-0.25677 1.39668,-0.27719 11.06892,-0.26413 l 10.48248,0.0142 0.61296,0.40564 c 0.33713,0.2231 0.77535,0.70964 0.97384,1.08118 0.35624,0.66687 0.36087,0.75006 0.36087,6.47879 0,5.5871 -0.0126,5.83054 -0.33884,6.53596 -0.38981,0.84293 -1.13271,1.46569 -2.04606,1.71518 -0.42804,0.11692 -3.80686,0.17287 -10.33454,0.17111 -9.03833,-0.002 -9.74196,-0.0223 -10.33591,-0.29214 z m 20.53469,-2.30263 c 0.12761,-0.12832 0.19908,-1.8252 0.23849,-5.66261 l 0.0563,-5.47938 -0.39451,-0.19787 c -0.30124,-0.15109 -2.71122,-0.20021 -10.19322,-0.20778 -8.55897,-0.009 -9.82394,0.0205 -9.99822,0.23051 -0.27388,0.33001 -0.0221,11.0474 0.26777,11.39611 0.16506,0.1986 1.56696,0.22205 10.01656,0.16758 7.12987,-0.046 9.87462,-0.11359 10.00686,-0.24656 z m -2.32863,-20.66983 c 1.18053,-0.0294 2.27162,-0.10796 2.42465,-0.17469 0.25664,-0.1119 0.27824,-0.51518 0.27824,-5.19602 v -5.0747 l -0.36864,-0.14016 c -0.20275,-0.0771 -3.85948,-0.16192 -8.12605,-0.18852 -7.50182,-0.0468 -7.76479,-0.0383 -7.98112,0.25756 -0.18475,0.25266 -0.21187,1.19303 -0.15574,5.39949 0.0374,2.80145 0.0743,5.10618 0.0821,5.12164 0.0712,0.1414 8.082,0.13874 13.84654,-0.005 z m -24.08503,-0.32046 c 0.23465,-0.26171 0.0585,-10.20014 -0.18509,-10.44323 -0.27767,-0.2771 -5.14636,-0.36916 -12.33297,-0.23322 -4.75789,0.09 -6.38428,0.17017 -6.59618,0.32511 -0.25886,0.18929 -0.28012,0.58958 -0.26708,5.0295 0.009,3.09297 0.0765,4.97622 0.188,5.24851 l 0.17383,0.42468 9.42905,-0.0857 c 6.72083,-0.0611 9.4754,-0.13737 9.59044,-0.26568 z m 7.86775,-8.25744 c 0,-1.9585 0.0306,-2.17656 0.41285,-2.94368 0.30651,-0.61509 0.60342,-0.94051 1.1527,-1.26341 0.7311,-0.42978 0.77322,-0.43493 3.56194,-0.43493 h 2.82209 l -0.002,-2.38489 c -0.001,-1.31169 -0.0442,-2.54184 -0.0957,-2.73365 -0.0931,-0.34707 -0.11518,-0.34899 -4.58181,-0.39748 l -4.48829,-0.0487 -0.76968,-0.47698 c -0.50515,-0.31304 -0.89689,-0.71782 -1.13977,-1.17771 -0.33233,-0.62926 -0.37008,-0.91078 -0.37008,-2.76032 v -2.0596 l -0.58883,0.11047 c -0.67868,0.12732 -1.48077,0.51878 -2.26418,1.10504 -0.633,0.4737 -0.91355,0.50612 -1.40442,0.16231 -0.36238,-0.25383 -0.48088,-0.92687 -0.19437,-1.10394 0.5179,-0.32008 -0.12679,-0.39728 -3.29911,-0.39505 -1.90195,0.001 -3.54287,0.0563 -3.64648,0.12223 -0.28175,0.17916 -0.3495,1.20367 -0.45436,6.87103 l -0.0956,5.16727 h 3.78752 c 4.33168,0 4.64323,0.0754 5.53645,1.33917 0.46843,0.66278 0.47795,0.7159 0.53154,2.96269 l 0.0546,2.2878 2.25083,0.0488 c 1.23796,0.0268 2.48336,0.0645 2.76756,0.0838 l 0.51673,0.035 z m 18.02539,-12.6626 c 0.33862,-0.0786 0.6656,-0.20206 0.72662,-0.27444 0.061,-0.0724 0.0702,-2.49958 0.0203,-5.39378 -0.071,-4.12237 -0.13791,-5.3191 -0.30885,-5.525 -0.19854,-0.23914 -1.08296,-0.26284 -9.80844,-0.26284 -6.48588,0 -9.6234,0.0537 -9.69272,0.16584 -0.0564,0.0912 -0.14312,2.51961 -0.19277,5.39643 -0.0815,4.72165 -0.0644,5.27018 0.17627,5.63741 l 0.26655,0.40681 9.09869,-0.004 c 5.00427,-0.002 9.37573,-0.0681 9.71434,-0.14663 z m -128.016002,41.5657 c -0.550501,-0.12048 -1.250313,-0.37319 -1.555141,-0.56158 -0.695123,-0.42961 -1.606735,-1.60944 -1.824647,-2.36151 -0.112894,-0.38962 -0.150718,-8.51642 -0.118475,-25.45475 l 0.04737,-24.88241 0.385025,-0.77602 c 0.415229,-0.83691 1.376054,-1.57601 2.394907,-1.84226 0.313096,-0.0818 6.599509,-0.1628 14.293044,-0.18411 l 13.734123,-0.038 1.67882,1.8177 c 2.113527,2.28837 4.644001,4.8212 7.889837,7.89719 l 2.53542,2.40275 -0.04254,20.00531 c -0.02533,11.91348 -0.103804,20.28416 -0.194007,20.69469 -0.344519,1.56798 -1.291479,2.72118 -2.602949,3.16987 -0.736139,0.25185 -2.198408,0.27618 -18.210147,0.30304 -14.281017,0.0239 -17.589608,-0.0102 -18.41064,-0.18986 z m 36.190635,-2.51229 c 1.020432,-0.55682 0.966454,0.5341 1.015767,-20.52911 l 0.04491,-19.1834 -0.368342,0.0925 c -1.761909,0.44233 -6.950711,0.54637 -8.228172,0.16499 -0.477228,-0.14248 -1.109416,-0.51948 -1.615412,-0.96334 -1.245436,-1.09249 -1.315067,-1.44391 -1.315067,-6.63701 v -4.27888 l -12.838686,0.0644 c -8.883397,0.0445 -12.965784,0.11851 -13.251243,0.2401 -0.226907,0.0966 -0.530981,0.29414 -0.675721,0.43888 -0.242682,0.24268 -0.262464,2.16461 -0.254188,24.69698 0.0068,18.49704 0.05508,24.56768 0.198741,24.98478 0.109015,0.31652 0.421755,0.70696 0.734936,0.91753 l 0.545168,0.36656 17.739028,-0.0431 c 16.794848,-0.0408 17.767198,-0.0584 18.26828,-0.33187 z M 34.160671,171.92032 c -0.4281,-0.4557 -0.439265,-0.90113 -0.03545,-1.41449 l 0.310248,-0.39442 8.711284,-0.089 c 4.815585,-0.0492 8.826553,-0.0273 8.969037,0.0489 0.43821,0.23452 0.67905,1.01313 0.447701,1.44736 -0.414557,0.77811 -0.182922,0.75923 -9.379966,0.76459 l -8.677152,0.005 z m 0.570246,-7.85438 c -0.881734,-0.13376 -1.213656,-1.3001 -0.547965,-1.92548 l 0.367981,-0.3457 h 12.35146 c 12.139469,0 12.356917,0.006 12.669445,0.31799 0.516729,0.51672 0.478563,1.19249 -0.09653,1.70917 l -0.398181,0.35773 -11.955356,-0.0238 c -6.575447,-0.0131 -12.151332,-0.0536 -12.390853,-0.0899 z m 1.017194,-8.6309 c -1.149655,-0.0689 -1.366616,-0.12947 -1.629678,-0.45485 -0.407684,-0.50425 -0.382057,-0.91195 0.08679,-1.3808 l 0.390255,-0.39025 h 9.694261 9.69426 l 0.338512,0.43035 c 0.388613,0.49404 0.327632,1.04961 -0.1709,1.55706 -0.304567,0.31001 -0.522525,0.31799 -8.694842,0.31799 -4.610346,0 -8.979243,-0.0358 -9.708662,-0.0795 z m 27.920164,-8.56763 0.996072,-0.0975 -3.801416,-3.79782 -3.801418,-3.79782 -0.114208,1.67556 c -0.120159,1.7629 -0.0022,3.99203 0.25514,4.8235 0.215985,0.69772 0.774459,1.16191 1.588909,1.32067 0.67562,0.1317 2.801646,0.0765 4.876921,-0.1266 z m 30.591753,24.09895 c -0.606384,-0.64547 -0.459115,-1.1322 0.723171,-2.39011 0.587879,-0.62548 1.336392,-1.42343 1.663363,-1.77321 l 0.594492,-0.63597 -10.661831,-0.0339 c -5.864007,-0.0187 -10.798797,-0.0774 -10.966197,-0.13052 -0.39464,-0.12525 -0.822117,-0.95609 -0.69614,-1.35301 0.261187,-0.82293 -0.247198,-0.78796 11.456631,-0.78796 6.490816,0 10.879664,-0.0588 10.879664,-0.1458 0,-0.0802 -0.520133,-0.70623 -1.155849,-1.39119 -1.914667,-2.06299 -2.183004,-2.41856 -2.183004,-2.89263 0,-0.53772 0.58646,-1.13514 1.114305,-1.13514 0.512832,0 6.340817,5.94694 6.351307,6.48094 0.007,0.33409 -2.025806,2.65826 -4.933867,5.64228 -1.01647,1.04302 -1.585708,1.18526 -2.186045,0.54623 z"
         id="path39" />
   </g>
</svg>